<svg xmlns="http://www.w3.org/2000/svg" width="60" height="60" viewBox="0 0 60 60" fill="none">
  <g clip-path="url(#clip0_47_54367)">
    <rect width="12.3831" height="12.3831" transform="matrix(0.866025 0.5 -0.866025 0.5 30.063 47.3311)" fill="url(#paint0_linear_47_54367)"/>
    <g filter="url(#filter0_bf_47_54367)">
      <rect width="24.7934" height="24.7934" transform="matrix(0.866025 0.5 -0.866025 0.5 30.3976 30.8018)" fill="#0047FF"/>
      <rect x="-2.98023e-08" y="0.5" width="23.7934" height="23.7934" transform="matrix(0.866025 0.5 -0.866025 0.5 30.8306 31.0518)" stroke="url(#paint1_linear_47_54367)"/>
    </g>
    <rect x="-2.98023e-08" y="0.5" width="28.485" height="28.485" transform="matrix(0.866025 0.5 -0.866025 0.5 30.8306 28.7061)" stroke="url(#paint2_linear_47_54367)"/>
    <path d="M30 19H60L49.5868 42.5744L30 54L10.4132 42.5744L0 19H30Z" fill="url(#paint3_linear_47_54367)" fill-opacity="0.44"/>
    <path d="M30 19H60L49.5868 42.5744L30 54L10.4132 42.5744L0 19H30Z" fill="url(#paint4_linear_47_54367)" fill-opacity="0.64"/>
    <path d="M30 19H60L49.5868 42.5744L30 54L10.4132 42.5744L0 19H30Z" fill="url(#paint5_linear_47_54367)" fill-opacity="0.64"/>
    <path d="M30 27.0234H49.3828L42.6549 42.2547L30 49.6367L17.3451 42.2547L10.6172 27.0234H30Z" fill="url(#paint6_linear_47_54367)" fill-opacity="0.44"/>
    <g filter="url(#filter1_d_47_54367)">
      <path fill-rule="evenodd" clip-rule="evenodd" d="M25.3784 4.86375C25.3784 3.89618 26.1528 3.11182 27.1081 3.11182H34.8919C35.8472 3.11182 36.6216 3.89618 36.6216 4.86375C36.6216 5.83131 35.8472 6.61568 34.8919 6.61568H27.1081C26.1528 6.61568 25.3784 5.83131 25.3784 4.86375ZM22.7838 18.4685H27.973V14.2127C27.973 13.6604 28.4207 13.2127 28.973 13.2127H38.3514C38.829 13.2127 39.2162 12.8205 39.2162 12.3367V11.4608C39.2162 10.977 38.829 10.5848 38.3514 10.5848H23.6486C23.171 10.5848 22.7838 10.977 22.7838 11.4608V12.3367C22.7838 12.4963 22.8259 12.6459 22.8995 12.7747C22.8259 12.9035 22.7838 13.0531 22.7838 13.2127V18.4685ZM16.8649 30.732C16.3126 30.732 15.8649 31.1797 15.8649 31.732V34.1118C15.8649 34.6641 16.3126 35.1118 16.8649 35.1118H22.7838H39.2162H46C46.5523 35.1118 47 34.6641 47 34.1118V31.732C47 31.1797 46.5523 30.732 46 30.732H40.9459V28.2281C40.9459 27.6758 40.4982 27.2281 39.9459 27.2281H36.6216C36.144 27.2281 35.7568 26.836 35.7568 26.3522V17.5925C35.7568 17.1087 36.144 16.7165 36.6216 16.7165H39.9459C40.4982 16.7165 40.9459 16.2688 40.9459 15.7165V10.5848C40.9459 9.61723 40.1715 8.83286 39.2162 8.83286H22.7838C21.8285 8.83286 21.0541 9.61723 21.0541 10.5848V12.1999H18.2281C17.929 11.6762 17.37 11.3239 16.7297 11.3239C15.7744 11.3239 15 12.1083 15 13.0758C15 14.0434 15.7744 14.8277 16.7297 14.8277C17.37 14.8277 17.929 14.4754 18.2281 13.9518H21.0541V19.3444V24.6002V28.3916H20V18.7697H21V16.744H19.5C18.6716 16.744 18 17.4242 18 18.2633V28.8981C18 29.7371 18.6716 30.4173 19.5 30.4173H21.0541V30.732H16.8649ZM38.3514 18.4685C37.8737 18.4685 37.4865 18.8607 37.4865 19.3444V24.6002C37.4865 25.084 37.8737 25.4762 38.3514 25.4762H40.9459C41.4236 25.4762 41.8108 25.084 41.8108 24.6002V19.3444C41.8108 18.8607 41.4236 18.4685 40.9459 18.4685H38.3514Z" fill="url(#paint7_linear_47_54367)"/>
    </g>
  </g>
  <defs>
    <filter id="filter0_bf_47_54367" x="4.92584" y="26.8018" width="50.9434" height="32.7934" filterUnits="userSpaceOnUse" color-interpolation-filters="sRGB">
      <feFlood flood-opacity="0" result="BackgroundImageFix"/>
      <feGaussianBlur in="BackgroundImageFix" stdDeviation="2"/>
      <feComposite in2="SourceAlpha" operator="in" result="effect1_backgroundBlur_47_54367"/>
      <feBlend mode="normal" in="SourceGraphic" in2="effect1_backgroundBlur_47_54367" result="shape"/>
      <feGaussianBlur stdDeviation="2" result="effect2_foregroundBlur_47_54367"/>
    </filter>
    <filter id="filter1_d_47_54367" x="11" y="0.111816" width="40" height="40" filterUnits="userSpaceOnUse" color-interpolation-filters="sRGB">
      <feFlood flood-opacity="0" result="BackgroundImageFix"/>
      <feColorMatrix in="SourceAlpha" type="matrix" values="0 0 0 0 0 0 0 0 0 0 0 0 0 0 0 0 0 0 127 0" result="hardAlpha"/>
      <feOffset dy="1"/>
      <feGaussianBlur stdDeviation="2"/>
      <feComposite in2="hardAlpha" operator="out"/>
      <feColorMatrix type="matrix" values="0 0 0 0 0 0 0 0 0 0.94 0 0 0 0 1 0 0 0 0.4 0"/>
      <feBlend mode="normal" in2="BackgroundImageFix" result="effect1_dropShadow_47_54367"/>
      <feBlend mode="normal" in="SourceGraphic" in2="effect1_dropShadow_47_54367" result="shape"/>
    </filter>
    <linearGradient id="paint0_linear_47_54367" x1="-3.63418" y1="-3.54803" x2="12.34" y2="12.4262" gradientUnits="userSpaceOnUse">
      <stop offset="0.226023" stop-color="#00FF85" stop-opacity="0"/>
      <stop offset="1" stop-color="#0068FF"/>
    </linearGradient>
    <linearGradient id="paint1_linear_47_54367" x1="-7.27633" y1="-7.10383" x2="24.7071" y2="24.8796" gradientUnits="userSpaceOnUse">
      <stop offset="0.226023" stop-color="#7AABFF" stop-opacity="0"/>
      <stop offset="1" stop-color="#20E5BB"/>
    </linearGradient>
    <linearGradient id="paint2_linear_47_54367" x1="-8.65323" y1="-8.44809" x2="29.3825" y2="29.5876" gradientUnits="userSpaceOnUse">
      <stop stop-color="#2172FF" stop-opacity="0"/>
      <stop offset="1" stop-color="#00FF85"/>
    </linearGradient>
    <linearGradient id="paint3_linear_47_54367" x1="30.2479" y1="52.2246" x2="30.2479" y2="8.85507" gradientUnits="userSpaceOnUse">
      <stop stop-color="#09F977" stop-opacity="0.79"/>
      <stop offset="0.577043" stop-color="#0561FF" stop-opacity="0.03"/>
    </linearGradient>
    <linearGradient id="paint4_linear_47_54367" x1="0.5" y1="49" x2="23.9671" y2="24.9794" gradientUnits="userSpaceOnUse">
      <stop offset="0.275624" stop-color="#01FF67"/>
      <stop offset="0.640713" stop-color="#1DFFFF" stop-opacity="0"/>
    </linearGradient>
    <linearGradient id="paint5_linear_47_54367" x1="60" y1="46.3913" x2="38.0695" y2="26.9865" gradientUnits="userSpaceOnUse">
      <stop offset="0.275624" stop-color="#01FF67"/>
      <stop offset="0.640713" stop-color="#1DFFFF" stop-opacity="0"/>
    </linearGradient>
    <linearGradient id="paint6_linear_47_54367" x1="30.1602" y1="48.4897" x2="30.1602" y2="20.4689" gradientUnits="userSpaceOnUse">
      <stop stop-color="#00FFFF"/>
      <stop offset="0.832048" stop-color="#0047FF" stop-opacity="0"/>
    </linearGradient>
    <linearGradient id="paint7_linear_47_54367" x1="31" y1="3.11182" x2="31" y2="35.1118" gradientUnits="userSpaceOnUse">
      <stop stop-color="white"/>
      <stop offset="1" stop-color="#75FFF7"/>
    </linearGradient>
    <clipPath id="clip0_47_54367">
      <rect width="60" height="60" fill="white"/>
    </clipPath>
  </defs>
</svg>